# xmcd
#
# Track frame offsets:
#	150
#	14178
#	33453
#	42505
#	54935
#	68408
#	87615
#	101853
#	124663
#	144768
#	154223
#	173373
#	185568
#	195640
#	215708
#	229358
#
# Disc length: 3407 seconds
#
# Revision: 0
# Processed by: cddbd v1.4PL0 Copyright (c) Steve Scherf et al.
# Submitted via: dBpowerAMP V4.0
#
DISCID=e40d4d10
DTITLE=Various Artist - A.I.M #31- Country and Western
DYEAR=1991
DGENRE=Country
TTITLE0=Makin' Music - Charlie Louvin
TTITLE1=Tryin' to be a Good Ol' Boy - Ralph Litwin
TTITLE2=Out on a Limb - Charlie McCoy
TTITLE3=It's Over - Ray Price
TTITLE4=Memories That Last - Faron young and Ray Price
TTITLE5=The Touch of the Master's hand - Laurie Lewis and Kathy Kallick
TTITLE6=Crossing the Caucasus - Banjo Dan
TTITLE7=The Road Goes On Forever - Robert Earl Keen
TTITLE8=Like I Used to Do - Tim O'brien
TTITLE9=Fisher's Hornpipe - David Scnaufer
TTITLE10=Arizona Moon - Ranch Romance
TTITLE11=Hangin' Out - Chris Wall
TTITLE12=Guess Things Happen That Way - Tommy Cash
TTITLE13=Horizon Line - John Lincoln Wright
TTITLE14=Rockin' Pneumonia and the Boogie Woogie Flu - Jeannie C. Riley
TTITLE15=Box of Rain - Robert Hunter
EXTD=
EXTT0=
EXTT1=
EXTT2=
EXTT3=
EXTT4=
EXTT5=
EXTT6=
EXTT7=
EXTT8=
EXTT9=
EXTT10=
EXTT11=
EXTT12=
EXTT13=
EXTT14=
EXTT15=
PLAYORDER=
